# xmcd
#
# Track frame offsets:
# 150
# 18756
# 34292
# 56550
# 72202
# 93153
# 113576
# 132518
# 151990
# 169597
# 196821
# 212361
#
# Disc length: 3320 seconds
#
#
# Revision: 0
# Processed by: cddbd v1.5.1PL2 Copyright (c) Steve Scherf et al.
# Submitted via: FreeRIP 2.942 
#
DISCID=930cf60c
DTITLE=Thanx - Slice of life
DYEAR=2004
DGENRE=Blues
TTITLE0=What did I wrong
TTITLE1=4 winds blow
TTITLE2=Slice of life
TTITLE3=4 knives
TTITLE4=3'40
TTITLE5=Good 2 bad
TTITLE6=River is cold
TTITLE7=Ivory tower
TTITLE8=Touch of eternity
TTITLE9=Sweet memories
TTITLE10=What it is
TTITLE11=Schoolgirl's blues
EXTD=
EXTT0=
EXTT1=
EXTT2=
EXTT3=
EXTT4=
EXTT5=
EXTT6=
EXTT7=
EXTT8=
EXTT9=
EXTT10=
EXTT11=
PLAYORDER=
